<?xml version="1.0" encoding="UTF-8" standalone="no"?>
<!-- Created with Inkscape (http://www.inkscape.org/) -->

<svg
   xmlns:dc="http://purl.org/dc/elements/1.1/"
   xmlns:cc="http://creativecommons.org/ns#"
   xmlns:rdf="http://www.w3.org/1999/02/22-rdf-syntax-ns#"
   xmlns:svg="http://www.w3.org/2000/svg"
   xmlns="http://www.w3.org/2000/svg"
   xmlns:sodipodi="http://sodipodi.sourceforge.net/DTD/sodipodi-0.dtd"
   xmlns:inkscape="http://www.inkscape.org/namespaces/inkscape"
   id="svg4206"
   version="1.1"
   inkscape:version="0.91 r13725"
   width="410"
   height="410"
   viewBox="0 0 410 410"
   sodipodi:docname="logo.svg">
  <metadata
     id="metadata4212">
    <rdf:RDF>
      <cc:Work
         rdf:about="">
        <dc:format>image/svg+xml</dc:format>
        <dc:type
           rdf:resource="http://purl.org/dc/dcmitype/StillImage" />
        <dc:title />
      </cc:Work>
    </rdf:RDF>
  </metadata>
  <defs
     id="defs4210" />
  <sodipodi:namedview
     pagecolor="#ffffff"
     bordercolor="#666666"
     borderopacity="1"
     objecttolerance="10"
     gridtolerance="10"
     guidetolerance="10"
     inkscape:pageopacity="0"
     inkscape:pageshadow="2"
     inkscape:window-width="1162"
     inkscape:window-height="694"
     id="namedview4208"
     showgrid="false"
     inkscape:zoom="0.5"
     inkscape:cx="272.27003"
     inkscape:cy="226.82372"
     inkscape:window-x="0"
     inkscape:window-y="23"
     inkscape:window-maximized="0"
     inkscape:current-layer="svg4206"
     fit-margin-top="0"
     fit-margin-left="0"
     fit-margin-right="0"
     fit-margin-bottom="0" />
  <circle
     style="opacity:1;fill:none;fill-opacity:1;stroke:#000000;stroke-width:30;stroke-linecap:round;stroke-linejoin:round;stroke-miterlimit:4;stroke-dasharray:none;stroke-opacity:1"
     id="path4303"
     cx="205"
     cy="205"
     r="190" />
  <path
     sodipodi:nodetypes="cssscccscccsscccssssccccssssccssssssssscsccscccccccsssccccsscssccccccccsscccccscccccscccscsccssccccscsscsssssssscsscccccccssccccccssccccssssccs"
     style="fill-opacity:1"
     d="m 201.41979,84.702515 c -18.64649,0 -30.47685,4.16993 -47.68754,16.812505 -5.85106,4.29805 -23.01367,16.52115 -38.13867,27.16211 -31.19133,21.94415 -32,22.59014 -32,25.49999 0,4.16117 1.49642,4.51008 16.42382,3.83789 l 14.07618,-0.63476 -5.54102,6.41211 c -3.04769,3.52576 -10.13519,11.70771 -15.75,18.18359 -14.26913,16.45738 -13.99456,19.18535 1.82422,18.0625 l 9.33008,-0.66211 -2.40039,3.91211 c -1.32093,2.15197 -5.90438,9.51507 -10.1836,16.36133 -7.87848,12.60465 -8.98894,15.8023 -6.27734,18.05273 1.21055,1.00466 3.06752,0.85283 9.59766,-0.78711 l 8.09765,-2.0332 -0.51562,3.66016 c -3.45508,24.52106 -3.27794,28.16015 1.36914,28.16015 3.16652,0 4.68508,-2.71639 5.42383,-9.69922 1.3928,-13.1652 6.60345,-40.99978 11.04101,-58.98046 11.75142,-47.61587 27.35249,-79.09852 46.49219,-93.82617 8.5509,-6.579775 19.90588,-10.063175 33.0078,-10.316405 l 1.8516,-0.01367 c 5.8252,0.02238 11.9701,0.65616 18.3652,1.94726 l 5.7344,1.15821 -4.3301,2.74609 c -7.1942,4.562425 -13.6094,15.860435 -13.627,23.999995 -0.015,7.0287 2.6651,10.96957 9.9727,14.66015 11.1581,5.6352 18.1793,6.83926 39.0176,6.69727 22.3183,-0.15208 28.9353,-1.4033 30.4687,-5.76367 -4.2437,-13.82181 -14.84,-14.31917 -24.9492,-28.60937 1.0695,0 17.0827,9.36807 24.4805,14.32226 19.2496,12.89112 42.142,34.33589 46.211,43.28711 1.8423,4.0528 2.2286,6.7126 2.2558,15.5293 0.062,20.09912 -2.5608,19.94565 -49.9668,-2.9336 -30.7438,-14.83769 -33.84854,-15.92794 -40.2461,-14.13672 -4.9333,1.38122 -20.1062,10.97918 -24.0801,15.23242 -1.5736,1.68426 -2.2208,3.41321 -2,5.34376 0.2819,2.46402 1.3971,3.38192 8.1602,6.71484 8.0466,3.96552 23.15966,9.88181 60.5761,23.71289 11.7759,4.35299 21.6072,8.11103 21.8458,8.34961 0.8522,0.85219 -8.3627,5.96742 -14.2559,7.91406 -3.8529,1.27268 -7.3848,1.79321 -13.9571,1.95117 l -8.6507,0.008 c -11.2138,-0.27423 -20.0922,-1.87941 -34.2382,-6.05274 -12.6346,-3.72741 -12.1583,-4.39464 -12.125,17.00391 0.01,5.84227 0.086,9.95419 0.2519,12.9082 0,0 0.014,0.903 0.054,1.01172 0.2137,3.06033 0.5543,4.59581 1.0664,5.21289 1.7216,2.07459 4.5062,2.06995 6.5859,-0.01 2.0913,-6.14055 1.2976,-7.49705 1.1176,-12.64066 l -0.317,-14.72876 c 0.3128,0 4.6956,1.10311 9.7402,2.45313 18.334,4.90651 39.3131,5.70352 51.9727,1.97461 3.025,-0.89102 8.0809,-2.98589 11.2363,-4.65625 6.4673,-3.4236 14.7637,-11.66954 14.7637,-14.67383 2.8661,-4.94744 5.9887,-8.22825 9.75,-12.22656 -0.024,0.0185 -0.037,0.0342 -0.06,0.0527 0.038,-0.0404 0.073,-0.0787 0.1113,-0.11914 11.8148,-12.42436 12.7122,-14.6781 11.961,-30.05859 -0.6677,-13.66938 -2.8235,-19.09067 -11.4942,-28.91211 -2.9597,-3.3525 -6.1149,-6.6365 -9.4199,-9.84571 0.1,-0.0387 0.1523,-0.15919 0.1523,-0.36718 0,-0.20765 -0.7875,-0.99515 -1.75,-1.75 -1.3625,-1.06857 -1.5198,-1.12255 -0.7656,-0.13086 -34.1789,-32.08604 -83.878,-55.739765 -119.6589,-55.739765 z m 28.6894,21.654305 c 0.3553,-0.0128 0.736,-0.008 1.1523,0.006 2.1071,0.0718 5.0444,0.60552 6.5254,1.1875 l 2.6914,1.05859 -4.0371,10.29687 c -2.2207,5.66309 -4.4338,11.30937 -4.9179,12.54687 -1.0704,2.73574 -1.0392,2.73737 -8.1934,-0.44922 -4.2019,-1.87157 -5.9333,-3.23425 -6.3828,-5.02539 0.04,-4.27261 2.2444,-10.93185 6.1503,-15.15819 3.2977,-3.49027 4.5247,-4.37301 7.0117,-4.46289 z m 18.52146,7.98438 c 0.7831,-0.10143 4.26164,2.11647 8.07234,5.17772 5.562,4.46817 11.102,9.64845 13.9043,12.80469 0.475,0.80229 1.2794,1.77271 1.7929,2.3555 0.1033,0.23026 0.1413,0.40752 0.06,0.48828 -0.3156,0.31566 -5.432,0.63553 -11.2793,0.84961 -6.0693,-0.29369 -11.46534,0.66063 -17.8381,0.0393 -1.5125,-0.26802 -2.75,-0.86769 -2.75,-1.33398 0,-1.36779 7.0398,-19.44307 7.91796,-20.33007 0.028,-0.0278 0.067,-0.044 0.1191,-0.0508 z m -112.52929,11.5625 c 0.14844,0.16367 -2.0427,5.13431 -4.86914,11.04492 l -5.13867,10.74609 -7,0.0156 c -3.85,0.008 -8.6875,0.2919 -10.75,0.63281 -2.0625,0.34093 -3.75,0.36194 -3.75,0.0469 0,-0.69488 31.12523,-22.9082 31.50781,-22.48632 z m -16.9043,40.0704 c 0.24134,0.24133 -6.50246,23.01538 -6.90039,23.30273 -0.984,0.71058 -13.77344,1.15563 -13.52539,0.47071 0.42897,-1.18444 20.10913,-24.09009 20.42578,-23.77344 z m 130.11129,9.77344 c 1.5949,-0.0181 3.14914,0.33302 4.88284,0.99218 2.7137,1.03173 2.6844,1.06789 -5.68364,6.96094 -4.62726,3.25871 -8.63896,5.89989 -8.91396,5.86719 -1.7843,-0.21206 -8,-3.2836 -8,-3.95313 0,-0.44894 1.9125,-2.12553 4.25,-3.72461 6.2503,-4.27583 9.956,-6.10284 13.46476,-6.14257 z m 22.85744,8.95507 c 1.0808,0 15.4278,7.52851 15.4278,8.09571 0,0.36167 -2.2211,1.61352 -4.9356,2.78125 -2.7145,1.16773 -5.1139,2.12304 -5.332,2.12304 -0.2181,0 -1.5562,-2.925 -2.9746,-6.5 -1.4184,-3.575 -2.4024,-6.5 -2.1856,-6.5 z m -10.4414,2 c 0.3614,0 1.8486,2.97898 3.3067,6.6211 1.458,3.64211 2.5194,6.73882 2.3574,6.88086 -0.1621,0.14205 -4.0727,-1.20691 -8.6895,-2.99805 l -8.39454,-3.25781 5.38084,-3.62305 c 2.9595,-1.99302 5.6778,-3.62305 6.0391,-3.62305 z m 32.6914,14.52539 c 0.1143,-0.0137 0.1924,-0.009 0.2305,0.0137 0.3043,0.18429 2.6968,3.06405 5.3164,6.39843 2.6196,3.33437 4.1712,6.02557 3.4473,5.98047 -0.724,-0.0451 -5.7538,-1.73259 -11.1758,-3.75 l -9.8574,-3.66797 5.8574,-2.64843 c 2.8193,-1.27414 5.3814,-2.23054 6.1816,-2.32618 z m 14.7735,1.73047 c 1.5785,0.22842 12.4545,3.85501 13.3535,4.49024 0.2468,0.17438 -0.9123,1.67795 -2.5742,3.33984 l -3.0215,3.02149 -4.1152,-5.28321 c -2.2636,-2.90501 -3.9875,-5.40905 -3.8301,-5.5664 0.017,-0.0169 0.082,-0.0172 0.1875,-0.002 z m -202.90824,10.74414 c 0.49421,0 -0.41571,7.01996 -1.32813,10.25 -0.33211,1.17572 -1.49351,1.75 -3.54102,1.75 l -3.04882,0 1.74609,-2.66406 c 0.95991,-1.46501 2.63022,-4.16501 3.71289,-6 1.08267,-1.83499 2.18998,-3.33594 2.45899,-3.33594 z"
     id="path4292"
     inkscape:connector-curvature="0" />
  <path
     style="color:#000000;font-style:normal;font-variant:normal;font-weight:normal;font-stretch:normal;font-size:medium;line-height:normal;font-family:sans-serif;text-indent:0;text-align:start;text-decoration:none;text-decoration-line:none;text-decoration-style:solid;text-decoration-color:#000000;letter-spacing:normal;word-spacing:normal;text-transform:none;direction:ltr;block-progression:tb;writing-mode:lr-tb;baseline-shift:baseline;text-anchor:start;white-space:normal;clip-rule:nonzero;display:inline;overflow:visible;visibility:visible;opacity:1;isolation:auto;mix-blend-mode:normal;color-interpolation:sRGB;color-interpolation-filters:linearRGB;solid-color:#000000;solid-opacity:1;fill:#000000;fill-opacity:1;fill-rule:evenodd;stroke:none;stroke-width:10;stroke-linecap:round;stroke-linejoin:round;stroke-miterlimit:4;stroke-dasharray:none;stroke-dashoffset:0;stroke-opacity:1;color-rendering:auto;image-rendering:auto;shape-rendering:auto;text-rendering:auto;enable-background:accumulate"
     d="m 168.22097,283.27257 a 7.6365739,6.164048 0 0 0 -7.52247,6.16103 l 0,51.15648 a 7.6365739,6.164048 0 1 0 15.27162,0 l 0,-36.27758 23.23553,18.75514 a 7.6365739,6.164048 0 0 0 6.26077,1.86348 7.6365739,6.164048 0 0 0 6.22199,-1.86348 l 23.23555,-18.75514 0,36.27758 a 7.6365739,6.164048 0 1 0 15.27163,0 l 0,-51.15648 a 7.6365739,6.164048 0 0 0 -7.86252,-6.16103 7.6365739,6.164048 0 0 0 -5.17207,1.80328 l -31.71545,25.59751 -31.71247,-25.59751 a 7.6365739,6.164048 0 0 0 -5.51211,-1.80328 z"
     id="path4294"
     inkscape:connector-curvature="0" />
</svg>
